# xmcd
#
# Track frame offsets:
#	150
#	19229
#	36371
#	57789
#	78535
#	101345
#	122224
#	141303
#	158445
#	179863
#	200609
#	223419
#
# Disc length: 3257 seconds
#
# Revision: 0
# Processed by: cddbd v1.5.2PL0 Copyright (c) Steve Scherf et al.
# Submitted via: audiograbber 1.83.01
#
DISCID=b30cb70c
DTITLE=Karaoke Party - R&B Divas
DYEAR=1998
DGENRE=
TTITLE0=Destiny's Child - Emotion
TTITLE1=Missy Elliot - Get Your Freak On
TTITLE2=Toni Braxton - He Wasn't Man Enough
TTITLE3=Janet - Doesn't Really Matter
TTITLE4=Aaliyah - Try Again
TTITLE5=Mary J. Blige - Family Affair
TTITLE6=xx - xxx
TTITLE7=xx - xx
TTITLE8=xx - xxx
TTITLE9=xx - xx
TTITLE10=xx - xx
TTITLE11=xx - xx
EXTD=
EXTT0=
EXTT1=
EXTT2=
EXTT3=
EXTT4=
EXTT5=
EXTT6=
EXTT7=
EXTT8=
EXTT9=
EXTT10=
EXTT11=
PLAYORDER=
